<svg xmlns="http://www.w3.org/2000/svg" width="860" height="460" viewBox="0 0 860 460">
  <rect width="860" height="460" fill="#ffffff"/>
  <text x="55" y="45" font-family="Arial, sans-serif" font-size="28" fill="#111">선형변환 = 점과 격자를 한꺼번에 움직이는 규칙</text>
  <text x="90" y="82" font-family="Arial, sans-serif" font-size="20" fill="#2563eb">변환 전</text>
  <text x="535" y="82" font-family="Arial, sans-serif" font-size="20" fill="#dc2626">변환 후</text>
  <g transform="translate(80,110)">
    <rect x="0" y="0" width="260" height="260" fill="#f8fafc" stroke="#94a3b8"/>
    <g stroke="#cbd5e1" stroke-width="1">
      <line x1="52" y1="0" x2="52" y2="260"/>
      <line x1="104" y1="0" x2="104" y2="260"/>
      <line x1="156" y1="0" x2="156" y2="260"/>
      <line x1="208" y1="0" x2="208" y2="260"/>
      <line x1="0" y1="52" x2="260" y2="52"/>
      <line x1="0" y1="104" x2="260" y2="104"/>
      <line x1="0" y1="156" x2="260" y2="156"/>
      <line x1="0" y1="208" x2="260" y2="208"/>
    </g>
    <line x1="130" y1="260" x2="130" y2="0" stroke="#222" stroke-width="2"/>
    <line x1="0" y1="130" x2="260" y2="130" stroke="#222" stroke-width="2"/>
    <line x1="130" y1="130" x2="208" y2="78" stroke="#2563eb" stroke-width="5" marker-end="url(#arrowBlue)"/>
    <circle cx="208" cy="78" r="6" fill="#2563eb"/>
    <text x="214" y="75" font-family="Arial, sans-serif" font-size="17" fill="#2563eb">x</text>
  </g>
  <defs>
    <marker id="arrowBlue" markerWidth="12" markerHeight="12" refX="10" refY="6" orient="auto">
      <path d="M2,2 L10,6 L2,10 Z" fill="#2563eb"/>
    </marker>
    <marker id="arrowRed" markerWidth="12" markerHeight="12" refX="10" refY="6" orient="auto">
      <path d="M2,2 L10,6 L2,10 Z" fill="#dc2626"/>
    </marker>
  </defs>
  <text x="390" y="240" font-family="Arial, sans-serif" font-size="34" fill="#111">W</text>
  <text x="370" y="270" font-family="Arial, sans-serif" font-size="18" fill="#444">행렬을 곱함</text>
  <g transform="translate(520,110)">
    <polygon points="35,20 260,65 220,255 0,205" fill="#fef2f2" stroke="#fca5a5" stroke-width="2"/>
    <g stroke="#fecaca" stroke-width="1.5">
      <line x1="80" y1="29" x2="44" y2="215"/>
      <line x1="125" y1="38" x2="88" y2="225"/>
      <line x1="170" y1="47" x2="132" y2="235"/>
      <line x1="215" y1="56" x2="176" y2="245"/>
      <line x1="27" y1="57" x2="252" y2="101"/>
      <line x1="19" y1="94" x2="244" y2="139"/>
      <line x1="12" y1="131" x2="236" y2="177"/>
      <line x1="5" y1="168" x2="228" y2="215"/>
    </g>
    <line x1="130" y1="260" x2="145" y2="20" stroke="#222" stroke-width="2"/>
    <line x1="0" y1="190" x2="260" y2="95" stroke="#222" stroke-width="2"/>
    <line x1="130" y1="190" x2="228" y2="95" stroke="#dc2626" stroke-width="5" marker-end="url(#arrowRed)"/>
    <circle cx="228" cy="95" r="6" fill="#dc2626"/>
    <text x="235" y="93" font-family="Arial, sans-serif" font-size="17" fill="#dc2626">Wx</text>
  </g>
</svg>
