<svg xmlns="http://www.w3.org/2000/svg" width="760" height="430" viewBox="0 0 760 430">
  <rect width="760" height="430" fill="#ffffff"/>
  <text x="60" y="50" font-family="Arial, sans-serif" font-size="28" fill="#111">손실함수의 기울기는 가중치를 바꿀 방향을 알려준다</text>
  <line x1="80" y1="350" x2="680" y2="350" stroke="#222" stroke-width="2"/>
  <line x1="120" y1="370" x2="120" y2="55" stroke="#222" stroke-width="2"/>
  <text x="690" y="355" font-family="Arial, sans-serif" font-size="18">w</text>
  <text x="88" y="45" font-family="Arial, sans-serif" font-size="18">Loss</text>
  <path d="M135 95 C240 260, 310 330, 390 330 C470 330, 540 260, 650 95" fill="none" stroke="#2563eb" stroke-width="5"/>
  <circle cx="250" cy="275" r="8" fill="#dc2626"/>
  <circle cx="520" cy="250" r="8" fill="#dc2626"/>
  <circle cx="390" cy="330" r="8" fill="#16a34a"/>
  <text x="205" y="245" font-family="Arial, sans-serif" font-size="18" fill="#dc2626">기울기 음수</text>
  <text x="535" y="250" font-family="Arial, sans-serif" font-size="18" fill="#dc2626">기울기 양수</text>
  <text x="365" y="365" font-family="Arial, sans-serif" font-size="18" fill="#16a34a">손실 최소</text>
  <path d="M250 275 L305 310" stroke="#dc2626" stroke-width="3" marker-end="url(#arrowRed)"/>
  <path d="M520 250 L465 300" stroke="#dc2626" stroke-width="3" marker-end="url(#arrowRed)"/>
  <defs>
    <marker id="arrowRed" markerWidth="12" markerHeight="12" refX="10" refY="6" orient="auto">
      <path d="M2,2 L10,6 L2,10 Z" fill="#dc2626"/>
    </marker>
  </defs>
  <text x="180" y="400" font-family="Arial, sans-serif" font-size="20" fill="#444">기울기를 보고 손실이 낮아지는 쪽으로 w를 조금 이동한다.</text>
</svg>
