<svg xmlns="http://www.w3.org/2000/svg" width="780" height="450" viewBox="0 0 780 450">
  <rect width="780" height="450" fill="#ffffff"/>
  <text x="58" y="50" font-family="Arial, sans-serif" font-size="28" fill="#111">경사하강법 = 손실이 낮아지는 쪽으로 조금씩 이동</text>
  <line x1="80" y1="355" x2="690" y2="355" stroke="#222" stroke-width="2"/>
  <line x1="120" y1="375" x2="120" y2="70" stroke="#222" stroke-width="2"/>
  <text x="700" y="360" font-family="Arial, sans-serif" font-size="18">w</text>
  <text x="88" y="64" font-family="Arial, sans-serif" font-size="18">Loss</text>
  <path d="M130 85 C230 235, 295 330, 390 330 C485 330, 550 235, 650 85" fill="none" stroke="#2556a2" stroke-width="5"/>
  <defs>
    <marker id="arrow" markerWidth="12" markerHeight="12" refX="10" refY="6" orient="auto">
      <path d="M2,2 L10,6 L2,10 Z" fill="#b42318"/>
    </marker>
  </defs>
  <circle cx="610" cy="130" r="8" fill="#b42318"/>
  <circle cx="550" cy="230" r="8" fill="#b42318"/>
  <circle cx="490" cy="292" r="8" fill="#b42318"/>
  <circle cx="435" cy="322" r="8" fill="#b42318"/>
  <circle cx="392" cy="330" r="8" fill="#0f7b5f"/>
  <line x1="606" y1="140" x2="556" y2="220" stroke="#b42318" stroke-width="3" marker-end="url(#arrow)"/>
  <line x1="545" y1="238" x2="497" y2="286" stroke="#b42318" stroke-width="3" marker-end="url(#arrow)"/>
  <line x1="483" y1="299" x2="444" y2="319" stroke="#b42318" stroke-width="3" marker-end="url(#arrow)"/>
  <line x1="427" y1="324" x2="402" y2="329" stroke="#b42318" stroke-width="3" marker-end="url(#arrow)"/>
  <text x="560" y="112" font-family="Arial, sans-serif" font-size="18" fill="#b42318">시작</text>
  <text x="350" y="370" font-family="Arial, sans-serif" font-size="18" fill="#0f7b5f">낮은 손실</text>
  <text x="130" y="410" font-family="Arial, sans-serif" font-size="20" fill="#444">한 번에 답을 찾는 것이 아니라, 기울기를 보고 조금씩 내려간다.</text>
</svg>
