<svg xmlns="http://www.w3.org/2000/svg" width="820" height="460" viewBox="0 0 820 460">
  <rect width="820" height="460" fill="#ffffff"/>
  <text x="58" y="50" font-family="Arial, sans-serif" font-size="28" fill="#111">Learning Rate = 한 번에 움직이는 보폭</text>
  <line x1="65" y1="350" x2="755" y2="350" stroke="#222" stroke-width="2"/>
  <path d="M85 105 C160 245, 215 320, 300 320 C385 320, 440 245, 515 105" fill="none" stroke="#2556a2" stroke-width="4"/>
  <path d="M305 105 C380 245, 435 320, 520 320 C605 320, 660 245, 735 105" fill="none" stroke="#2556a2" stroke-width="4" opacity="0.35"/>
  <defs>
    <marker id="arrowSmall" markerWidth="12" markerHeight="12" refX="10" refY="6" orient="auto">
      <path d="M2,2 L10,6 L2,10 Z" fill="#0f7b5f"/>
    </marker>
    <marker id="arrowBig" markerWidth="12" markerHeight="12" refX="10" refY="6" orient="auto">
      <path d="M2,2 L10,6 L2,10 Z" fill="#b42318"/>
    </marker>
  </defs>
  <line x1="470" y1="190" x2="430" y2="245" stroke="#0f7b5f" stroke-width="4" marker-end="url(#arrowSmall)"/>
  <line x1="430" y1="245" x2="395" y2="285" stroke="#0f7b5f" stroke-width="4" marker-end="url(#arrowSmall)"/>
  <line x1="395" y1="285" x2="355" y2="312" stroke="#0f7b5f" stroke-width="4" marker-end="url(#arrowSmall)"/>
  <text x="118" y="88" font-family="Arial, sans-serif" font-size="22" fill="#0f7b5f">적절한 보폭</text>
  <text x="108" y="382" font-family="Arial, sans-serif" font-size="18" fill="#444">조금씩 안정적으로 내려감</text>
  <line x1="690" y1="120" x2="560" y2="315" stroke="#b42318" stroke-width="4" marker-end="url(#arrowBig)"/>
  <line x1="560" y1="315" x2="730" y2="125" stroke="#b42318" stroke-width="4" marker-end="url(#arrowBig)"/>
  <text x="560" y="88" font-family="Arial, sans-serif" font-size="22" fill="#b42318">너무 큰 보폭</text>
  <text x="548" y="382" font-family="Arial, sans-serif" font-size="18" fill="#444">최소점을 지나쳐 튐</text>
</svg>
