<svg xmlns="http://www.w3.org/2000/svg" width="860" height="450" viewBox="0 0 860 450">
  <rect width="860" height="450" fill="#ffffff"/>
  <text x="58" y="52" font-family="Arial, sans-serif" font-size="28" fill="#111">AI 학습 루프</text>
  <defs>
    <marker id="arrow" markerWidth="12" markerHeight="12" refX="10" refY="6" orient="auto">
      <path d="M2,2 L10,6 L2,10 Z" fill="#2556a2"/>
    </marker>
  </defs>
  <rect x="70" y="135" width="140" height="78" rx="6" fill="#eff4fb" stroke="#2556a2" stroke-width="3"/>
  <text x="112" y="181" font-family="Arial, sans-serif" font-size="21">예측</text>
  <rect x="270" y="135" width="140" height="78" rx="6" fill="#fffdf8" stroke="#2556a2" stroke-width="3"/>
  <text x="298" y="181" font-family="Arial, sans-serif" font-size="21">손실 계산</text>
  <rect x="470" y="135" width="140" height="78" rx="6" fill="#fffdf8" stroke="#2556a2" stroke-width="3"/>
  <text x="492" y="181" font-family="Arial, sans-serif" font-size="21">그래디언트</text>
  <rect x="670" y="135" width="140" height="78" rx="6" fill="#eff4fb" stroke="#2556a2" stroke-width="3"/>
  <text x="704" y="181" font-family="Arial, sans-serif" font-size="21">업데이트</text>
  <line x1="212" y1="174" x2="268" y2="174" stroke="#2556a2" stroke-width="4" marker-end="url(#arrow)"/>
  <line x1="412" y1="174" x2="468" y2="174" stroke="#2556a2" stroke-width="4" marker-end="url(#arrow)"/>
  <line x1="612" y1="174" x2="668" y2="174" stroke="#2556a2" stroke-width="4" marker-end="url(#arrow)"/>
  <path d="M740 215 C735 315, 140 315, 140 215" fill="none" stroke="#b42318" stroke-width="4" marker-end="url(#arrow)"/>
  <text x="312" y="330" font-family="Arial, sans-serif" font-size="22" fill="#b42318">이 과정을 여러 번 반복한다</text>
  <text x="155" y="390" font-family="Arial, sans-serif" font-size="20" fill="#444">반복할수록 파라미터가 데이터에 맞게 조정되고 손실이 줄어든다.</text>
</svg>
