<svg xmlns="http://www.w3.org/2000/svg" width="860" height="450" viewBox="0 0 860 450">
  <rect width="860" height="450" fill="#ffffff"/>
  <text x="58" y="52" font-family="Arial, sans-serif" font-size="28" fill="#111">작은 신경망 직접 구현</text>
  <defs>
    <marker id="arrow" markerWidth="12" markerHeight="12" refX="10" refY="6" orient="auto">
      <path d="M2,2 L10,6 L2,10 Z" fill="#2556a2"/>
    </marker>
  </defs>
  <rect x="70" y="145" width="140" height="80" rx="6" fill="#eff4fb" stroke="#2556a2" stroke-width="3"/>
  <text x="110" y="193" font-family="Arial, sans-serif" font-size="22">입력 x</text>
  <rect x="280" y="145" width="170" height="80" rx="6" fill="#fffdf8" stroke="#cbbf9f" stroke-width="3"/>
  <text x="316" y="180" font-family="Arial, sans-serif" font-size="22">y_hat</text>
  <text x="302" y="208" font-family="Arial, sans-serif" font-size="18">= wx + b</text>
  <rect x="520" y="145" width="140" height="80" rx="6" fill="#fff5f4" stroke="#b42318" stroke-width="3"/>
  <text x="558" y="193" font-family="Arial, sans-serif" font-size="22">Loss</text>
  <rect x="710" y="145" width="100" height="80" rx="6" fill="#eff4fb" stroke="#0f7b5f" stroke-width="3"/>
  <text x="735" y="193" font-family="Arial, sans-serif" font-size="22">Update</text>
  <line x1="212" y1="185" x2="278" y2="185" stroke="#2556a2" stroke-width="4" marker-end="url(#arrow)"/>
  <line x1="452" y1="185" x2="518" y2="185" stroke="#2556a2" stroke-width="4" marker-end="url(#arrow)"/>
  <line x1="662" y1="185" x2="708" y2="185" stroke="#2556a2" stroke-width="4" marker-end="url(#arrow)"/>
  <path d="M760 228 C735 330, 365 340, 365 228" fill="none" stroke="#b42318" stroke-width="4" marker-end="url(#arrow)"/>
  <text x="282" y="330" font-family="Arial, sans-serif" font-size="22" fill="#b42318">그래디언트로 w, b를 반복 수정</text>
</svg>
